ffmpeg version git-2026-04-19-de18feb Copyright (c) 2000-2026 the FFmpeg developers
  built with gcc 9 (Ubuntu 9.4.0-1ubuntu1~20.04.2)
  configuration: --enable-shared --enable-gpl --enable-libx264
  libavutil      60. 30.100 / 60. 30.100
  libavcodec     62. 30.100 / 62. 30.100
  libavformat    62. 13.102 / 62. 13.102
  libavdevice    62.  4.100 / 62.  4.100
  libavfilter    11. 15.101 / 11. 15.101
  libswscale      9.  7.100 /  9.  7.100
  libswresample   6.  4.100 /  6.  4.100
[in#0/x11grab @ 0x5623b794cc40] Stream #0: not enough frames to estimate rate; consider increasing probesize
Input #0, x11grab, from ':0.0+0,0':
  Duration: N/A, start: 1777371573.201701, bitrate: 3678192 kb/s
  Stream #0:0: Video: rawvideo (BGR[0] / 0x524742), bgr0, 2870x1602, 3678192 kb/s, 25 fps, 1000k tbr, 1000k tbn, start 1777371573.201701
Stream mapping:
  Stream #0:0 -> #0:0 (rawvideo (native) -> h264 (libx264))
[libx264 @ 0x5623b795af00] using cpu capabilities: MMX2 SSE2Fast SSSE3 SSE4.2 AVX FMA3 BMI2 AVX2
[libx264 @ 0x5623b795af00] profile High, level 5.0
[libx264 @ 0x5623b795af00] 264 - core 155 r2917 0a84d98 - H.264/MPEG-4 AVC codec - Copyleft 2003-2018 - http://www.videolan.org/x264.html - options: cabac=1 ref=1 deblock=1:0:0 analyse=0x3:0x113 me=hex subme=2 psy=1 psy_rd=1.00:0.00 mixed_ref=0 me_range=16 chroma_me=1 trellis=0 8x8dct=1 cqm=0 deadzone=21,11 fast_pskip=1 chroma_qp_offset=0 threads=6 lookahead_threads=2 sliced_threads=0 nr=0 decimate=1 interlaced=0 bluray_compat=0 constrained_intra=0 bframes=3 b_pyramid=2 b_adapt=1 b_bias=0 direct=1 weightb=1 open_gop=0 weightp=1 keyint=250 keyint_min=25 scenecut=40 intra_refresh=0 rc_lookahead=10 rc=crf mbtree=1 crf=23.0 qcomp=0.60 qpmin=0 qpmax=69 qpstep=4 ip_ratio=1.40 aq=1:1.00
Output #0, matroska, to '/home/lmy/catkin_ws/recordings_tmp/exp_10_segment2/screen.mkv':
  Metadata:
    encoder         : Lavf62.13.102
  Stream #0:0: Video: h264 (H264 / 0x34363248), yuv420p(tv, progressive), 2870x1602, q=2-31, 25 fps, 1k tbn
    Metadata:
      encoder         : Lavc62.30.100 libx264
    Side data:
      CPB properties: bitrate max/min/avg: 0/0/0 buffer size: 0 vbv_delay: N/A
frame=    0 fps=0.0 q=0.0 size=       0KiB time=N/A bitrate=N/A speed=N/A elapsed=0:00:00.50    frame=    0 fps=0.0 q=0.0 size=       0KiB time=N/A bitrate=N/A speed=N/A elapsed=0:00:01.00    frame=    0 fps=0.0 q=0.0 size=       0KiB time=N/A bitrate=N/A speed=N/A elapsed=0:00:01.50    frame=    0 fps=0.0 q=0.0 size=       0KiB time=N/A bitrate=N/A speed=N/A elapsed=0:00:02.00    frame=    0 fps=0.0 q=0.0 size=       0KiB time=N/A bitrate=N/A speed=N/A elapsed=0:00:02.50    frame=    0 fps=0.0 q=0.0 size=       0KiB time=N/A bitrate=N/A speed=N/A elapsed=0:00:03.00    frame=    0 fps=0.0 q=0.0 size=       0KiB time=N/A bitrate=N/A speed=N/A elapsed=0:00:03.50    frame=    3 fps=0.7 q=27.0 size=       1KiB time=00:00:00.04 bitrate= 118.8kbits/s speed=0.00998x elapsed=0:00:04.00    frame=    7 fps=1.6 q=28.0 size=       1KiB time=00:00:00.64 bitrate=   7.4kbits/s speed=0.142x elapsed=0:00:04.50    frame=   11 fps=2.2 q=28.0 size=       1KiB time=00:00:00.84 bitrate=   5.7kbits/s speed=0.168x elapsed=0:00:05.01    frame=   14 fps=2.5 q=28.0 size=       1KiB time=00:00:01.00 bitrate=   4.8kbits/s speed=0.181x elapsed=0:00:05.51    frame=   17 fps=2.8 q=28.0 size=       1KiB time=00:00:01.12 bitrate=   4.2kbits/s speed=0.186x elapsed=0:00:06.01    frame=   22 fps=3.4 q=27.0 size=       1KiB time=00:00:01.40 bitrate=   3.4kbits/s speed=0.215x elapsed=0:00:06.51    frame=   26 fps=3.7 q=26.0 size=       1KiB time=00:00:01.56 bitrate=   3.0kbits/s speed=0.222x elapsed=0:00:07.01    frame=   31 fps=4.1 q=26.0 size=       1KiB time=00:00:01.92 bitrate=   2.5kbits/s speed=0.255x elapsed=0:00:07.51    frame=   33 fps=4.1 q=26.0 size=       1KiB time=00:00:02.16 bitrate=   2.2kbits/s speed=0.269x elapsed=0:00:08.02    frame=   40 fps=4.7 q=25.0 size=       1KiB time=00:00:03.80 bitrate=   1.3kbits/s speed=0.446x elapsed=0:00:08.52    frame=   46 fps=5.1 q=26.0 size=       1KiB time=00:00:04.64 bitrate=   1.0kbits/s speed=0.514x elapsed=0:00:09.02    frame=   47 fps=4.9 q=26.0 size=     134KiB time=00:00:04.76 bitrate= 231.3kbits/s speed= 0.5x elapsed=0:00:09.52    frame=   52 fps=5.2 q=26.0 size=     134KiB time=00:00:05.48 bitrate= 200.9kbits/s speed=0.546x elapsed=0:00:10.02    frame=   56 fps=5.3 q=26.0 size=     134KiB time=00:00:06.36 bitrate= 173.1kbits/s speed=0.604x elapsed=0:00:10.53    frame=   61 fps=5.5 q=22.0 size=     134KiB time=00:00:06.92 bitrate= 159.1kbits/s speed=0.626x elapsed=0:00:11.05    frame=   64 fps=5.5 q=23.0 size=     134KiB time=00:00:07.16 bitrate= 153.7kbits/s speed=0.619x elapsed=0:00:11.56    frame=   68 fps=5.6 q=27.0 size=     134KiB time=00:00:07.56 bitrate= 145.6kbits/s speed=0.627x elapsed=0:00:12.06    frame=   73 fps=5.8 q=28.0 size=     134KiB time=00:00:08.40 bitrate= 131.0kbits/s speed=0.668x elapsed=0:00:12.56    frame=   78 fps=6.0 q=27.0 size=     134KiB time=00:00:08.72 bitrate= 126.2kbits/s speed=0.667x elapsed=0:00:13.06    frame=   84 fps=6.2 q=24.0 size=     134KiB time=00:00:09.28 bitrate= 118.6kbits/s speed=0.684x elapsed=0:00:13.56    frame=   90 fps=6.4 q=24.0 size=     134KiB time=00:00:10.04 bitrate= 109.6kbits/s speed=0.714x elapsed=0:00:14.06    frame=   93 fps=6.4 q=26.0 size=     188KiB time=00:00:10.56 bitrate= 146.1kbits/s speed=0.725x elapsed=0:00:14.56    frame=  100 fps=6.6 q=28.0 size=     188KiB time=00:00:11.32 bitrate= 136.3kbits/s speed=0.751x elapsed=0:00:15.06    frame=  106 fps=6.8 q=25.0 size=     188KiB time=00:00:11.96 bitrate= 129.0kbits/s speed=0.768x elapsed=0:00:15.58    frame=  112 fps=7.0 q=27.0 size=     188KiB time=00:00:12.72 bitrate= 121.3kbits/s speed=0.791x elapsed=0:00:16.08    frame=  115 fps=6.9 q=28.0 size=     188KiB time=00:00:12.96 bitrate= 119.1kbits/s speed=0.781x elapsed=0:00:16.59    frame=  119 fps=7.0 q=28.0 size=     188KiB time=00:00:13.44 bitrate= 114.8kbits/s speed=0.786x elapsed=0:00:17.10    frame=  125 fps=7.1 q=26.0 size=     188KiB time=00:00:14.08 bitrate= 109.6kbits/s speed=0.799x elapsed=0:00:17.61    frame=  132 fps=7.3 q=26.0 size=     188KiB time=00:00:14.72 bitrate= 104.8kbits/s speed=0.813x elapsed=0:00:18.11    frame=  136 fps=7.3 q=26.0 size=     188KiB time=00:00:15.00 bitrate= 102.9kbits/s speed=0.806x elapsed=0:00:18.61    frame=  142 fps=7.4 q=25.0 size=     188KiB time=00:00:15.44 bitrate= 100.0kbits/s speed=0.807x elapsed=0:00:19.12    frame=  149 fps=7.6 q=28.0 size=     241KiB time=00:00:16.20 bitrate= 121.9kbits/s speed=0.826x elapsed=0:00:19.62    frame=  154 fps=7.7 q=25.0 size=     241KiB time=00:00:16.84 bitrate= 117.3kbits/s speed=0.837x elapsed=0:00:20.12    frame=  160 fps=7.8 q=25.0 size=     241KiB time=00:00:17.44 bitrate= 113.3kbits/s speed=0.845x elapsed=0:00:20.62    frame=  164 fps=7.8 q=26.0 size=     241KiB time=00:00:17.80 bitrate= 111.0kbits/s speed=0.842x elapsed=0:00:21.13    frame=  170 fps=7.9 q=27.0 size=     241KiB time=00:00:18.24 bitrate= 108.3kbits/s speed=0.843x elapsed=0:00:21.63    frame=  174 fps=7.9 q=25.0 size=     241KiB time=00:00:18.56 bitrate= 106.4kbits/s speed=0.838x elapsed=0:00:22.14    frame=  180 fps=7.9 q=25.0 size=     241KiB time=00:00:19.12 bitrate= 103.3kbits/s speed=0.844x elapsed=0:00:22.64    frame=  183 fps=7.9 q=27.0 size=     241KiB time=00:00:19.40 bitrate= 101.8kbits/s speed=0.838x elapsed=0:00:23.14    frame=  186 fps=7.9 q=27.0 size=     241KiB time=00:00:19.68 bitrate= 100.4kbits/s speed=0.832x elapsed=0:00:23.64    frame=  193 fps=8.0 q=26.0 size=     241KiB time=00:00:20.40 bitrate=  96.8kbits/s speed=0.845x elapsed=0:00:24.14    frame=  198 fps=8.0 q=26.0 size=     241KiB time=00:00:20.72 bitrate=  95.3kbits/s speed=0.841x elapsed=0:00:24.64    frame=  201 fps=8.0 q=24.0 size=     256KiB time=00:00:21.20 bitrate=  98.9kbits/s speed=0.843x elapsed=0:00:25.14    frame=  206 fps=8.0 q=26.0 size=     256KiB time=00:00:21.64 bitrate=  96.9kbits/s speed=0.844x elapsed=0:00:25.64    frame=  211 fps=8.1 q=28.0 size=     256KiB time=00:00:22.08 bitrate=  95.0kbits/s speed=0.844x elapsed=0:00:26.15    frame=  214 fps=8.0 q=27.0 size=     256KiB time=00:00:22.52 bitrate=  93.1kbits/s speed=0.845x elapsed=0:00:26.65    frame=  219 fps=8.1 q=28.0 size=     256KiB time=00:00:22.92 bitrate=  91.5kbits/s speed=0.844x elapsed=0:00:27.15    frame=  222 fps=8.0 q=25.0 size=     256KiB time=00:00:23.32 bitrate=  89.9kbits/s speed=0.843x elapsed=0:00:27.65    frame=  228 fps=8.1 q=25.0 size=     256KiB time=00:00:24.00 bitrate=  87.4kbits/s speed=0.852x elapsed=0:00:28.15    frame=  233 fps=8.1 q=26.0 size=     256KiB time=00:00:24.52 bitrate=  85.5kbits/s speed=0.856x elapsed=0:00:28.65    frame=  237 fps=8.1 q=25.0 size=     256KiB time=00:00:25.04 bitrate=  83.8kbits/s speed=0.859x elapsed=0:00:29.15    frame=  245 fps=8.3 q=24.0 size=     256KiB time=00:00:26.08 bitrate=  80.4kbits/s speed=0.879x elapsed=0:00:29.66    frame=  250 fps=8.3 q=24.0 size=     256KiB time=00:00:26.40 bitrate=  79.4kbits/s speed=0.875x elapsed=0:00:30.16    frame=  252 fps=8.2 q=25.0 size=     256KiB time=00:00:26.76 bitrate=  78.4kbits/s speed=0.873x elapsed=0:00:30.66    frame=  258 fps=8.3 q=25.0 size=     256KiB time=00:00:27.40 bitrate=  76.5kbits/s speed=0.879x elapsed=0:00:31.17    frame=  259 fps=8.2 q=28.0 size=     256KiB time=00:00:27.48 bitrate=  76.3kbits/s speed=0.868x elapsed=0:00:31.67    frame=  264 fps=8.2 q=28.0 size=     256KiB time=00:00:28.04 bitrate=  74.8kbits/s speed=0.871x elapsed=0:00:32.17    frame=  270 fps=8.3 q=26.0 size=     256KiB time=00:00:28.68 bitrate=  73.1kbits/s speed=0.878x elapsed=0:00:32.67    frame=  273 fps=8.2 q=25.0 size=     256KiB time=00:00:28.92 bitrate=  72.5kbits/s speed=0.872x elapsed=0:00:33.18    frame=  279 fps=8.3 q=26.0 size=     256KiB time=00:00:29.52 bitrate=  71.0kbits/s speed=0.876x elapsed=0:00:33.68    frame=  282 fps=8.2 q=26.0 size=     256KiB time=00:00:29.72 bitrate=  70.6kbits/s speed=0.869x elapsed=0:00:34.18    frame=  287 fps=8.3 q=22.0 size=     256KiB time=00:00:30.24 bitrate=  69.4kbits/s speed=0.872x elapsed=0:00:34.68    frame=  292 fps=8.3 q=23.0 size=     256KiB time=00:00:31.08 bitrate=  67.5kbits/s speed=0.883x elapsed=0:00:35.18    frame=  296 fps=8.3 q=27.0 size=     256KiB time=00:00:31.32 bitrate=  67.0kbits/s speed=0.878x elapsed=0:00:35.68    frame=  304 fps=8.4 q=25.0 size=     256KiB time=00:00:32.48 bitrate=  64.6kbits/s speed=0.898x elapsed=0:00:36.18    frame=  307 fps=8.4 q=26.0 size=     256KiB time=00:00:32.68 bitrate=  64.2kbits/s speed=0.891x elapsed=0:00:36.69    frame=  314 fps=8.4 q=26.0 size=     256KiB time=00:00:33.52 bitrate=  62.6kbits/s speed=0.901x elapsed=0:00:37.19    frame=  318 fps=8.4 q=25.0 size=     256KiB time=00:00:33.88 bitrate=  61.9kbits/s speed=0.899x elapsed=0:00:37.69    frame=  326 fps=8.5 q=23.0 size=     256KiB time=00:00:34.80 bitrate=  60.3kbits/s speed=0.911x elapsed=0:00:38.19    frame=  328 fps=8.5 q=25.0 size=     256KiB time=00:00:35.16 bitrate=  59.6kbits/s speed=0.909x elapsed=0:00:38.69    frame=  334 fps=8.5 q=28.0 size=     256KiB time=00:00:35.80 bitrate=  58.6kbits/s speed=0.913x elapsed=0:00:39.19    frame=  339 fps=8.5 q=28.0 size=     256KiB time=00:00:36.12 bitrate=  58.1kbits/s speed=0.91x elapsed=0:00:39.70    frame=  340 fps=8.5 q=25.0 size=     256KiB time=00:00:36.20 bitrate=  57.9kbits/s speed= 0.9x elapsed=0:00:40.20    frame=  346 fps=8.5 q=26.0 size=     256KiB time=00:00:36.88 bitrate=  56.9kbits/s speed=0.906x elapsed=0:00:40.70    frame=  349 fps=8.5 q=26.0 size=     512KiB time=00:00:37.12 bitrate= 113.0kbits/s speed=0.901x elapsed=0:00:41.20    frame=  356 fps=8.5 q=26.0 size=     512KiB time=00:00:37.80 bitrate= 111.0kbits/s speed=0.906x elapsed=0:00:41.70    frame=  362 fps=8.6 q=27.0 size=     512KiB time=00:00:38.24 bitrate= 109.7kbits/s speed=0.906x elapsed=0:00:42.20    frame=  364 fps=8.5 q=28.0 size=     512KiB time=00:00:38.40 bitrate= 109.2kbits/s speed=0.899x elapsed=0:00:42.70    frame=  371 fps=8.6 q=28.0 size=     512KiB time=00:00:39.24 bitrate= 106.9kbits/s speed=0.908x elapsed=0:00:43.20    frame=  376 fps=8.6 q=28.0 size=     512KiB time=00:00:39.96 bitrate= 105.0kbits/s speed=0.914x elapsed=0:00:43.70    frame=  381 fps=8.6 q=28.0 size=     512KiB time=00:00:40.56 bitrate= 103.4kbits/s speed=0.917x elapsed=0:00:44.20    frame=  386 fps=8.6 q=28.0 size=     512KiB time=00:00:41.12 bitrate= 102.0kbits/s speed=0.92x elapsed=0:00:44.70    frame=  392 fps=8.7 q=27.0 size=     512KiB time=00:00:41.68 bitrate= 100.6kbits/s speed=0.922x elapsed=0:00:45.21    frame=  396 fps=8.7 q=28.0 size=     512KiB time=00:00:42.08 bitrate=  99.7kbits/s speed=0.921x elapsed=0:00:45.71    frame=  402 fps=8.7 q=27.0 size=     512KiB time=00:00:42.56 bitrate=  98.6kbits/s speed=0.921x elapsed=0:00:46.21    frame=  407 fps=8.7 q=26.0 size=     512KiB time=00:00:43.08 bitrate=  97.4kbits/s speed=0.922x elapsed=0:00:46.71    frame=  413 fps=8.7 q=27.0 size=     512KiB time=00:00:43.64 bitrate=  96.1kbits/s speed=0.924x elapsed=0:00:47.22    frame=  419 fps=8.8 q=26.0 size=     512KiB time=00:00:44.32 bitrate=  94.6kbits/s speed=0.929x elapsed=0:00:47.73    frame=  424 fps=8.8 q=27.0 size=     512KiB time=00:00:44.80 bitrate=  93.6kbits/s speed=0.929x elapsed=0:00:48.23    frame=  429 fps=8.8 q=28.0 size=     512KiB time=00:00:45.28 bitrate=  92.6kbits/s speed=0.929x elapsed=0:00:48.73    frame=  434 fps=8.8 q=28.0 size=     512KiB time=00:00:45.80 bitrate=  91.6kbits/s speed=0.93x elapsed=0:00:49.23    frame=  440 fps=8.8 q=23.0 size=     512KiB time=00:00:46.28 bitrate=  90.6kbits/s speed=0.93x elapsed=0:00:49.74    frame=  444 fps=8.8 q=25.0 size=     512KiB time=00:00:46.76 bitrate=  89.7kbits/s speed=0.931x elapsed=0:00:50.24    frame=  449 fps=8.8 q=26.0 size=     512KiB time=00:00:47.24 bitrate=  88.8kbits/s speed=0.931x elapsed=0:00:50.74    frame=  454 fps=8.9 q=26.0 size=     512KiB time=00:00:47.60 bitrate=  88.1kbits/s speed=0.929x elapsed=0:00:51.24    frame=  456 fps=8.8 q=27.0 size=     512KiB time=00:00:47.80 bitrate=  87.7kbits/s speed=0.924x elapsed=0:00:51.74    frame=  461 fps=8.8 q=28.0 size=     512KiB time=00:00:48.20 bitrate=  87.0kbits/s speed=0.922x elapsed=0:00:52.25    frame=  465 fps=8.8 q=27.0 size=     512KiB time=00:00:48.72 bitrate=  86.1kbits/s speed=0.924x elapsed=0:00:52.75    frame=  470 fps=8.8 q=28.0 size=     512KiB time=00:00:49.04 bitrate=  85.5kbits/s speed=0.921x elapsed=0:00:53.25    frame=  477 fps=8.9 q=28.0 size=     512KiB time=00:00:49.76 bitrate=  84.3kbits/s speed=0.926x elapsed=0:00:53.75    frame=  480 fps=8.8 q=26.0 size=     512KiB time=00:00:50.12 bitrate=  83.7kbits/s speed=0.924x elapsed=0:00:54.27    frame=  487 fps=8.9 q=26.0 size=     512KiB time=00:00:50.84 bitrate=  82.5kbits/s speed=0.928x elapsed=0:00:54.77    frame=  492 fps=8.9 q=24.0 size=     512KiB time=00:00:51.32 bitrate=  81.7kbits/s speed=0.928x elapsed=0:00:55.27    frame=  497 fps=8.9 q=28.0 size=     512KiB time=00:00:52.08 bitrate=  80.5kbits/s speed=0.934x elapsed=0:00:55.77    frame=  501 fps=8.9 q=28.0 size=     512KiB time=00:00:52.52 bitrate=  79.9kbits/s speed=0.933x elapsed=0:00:56.29    frame=  506 fps=8.9 q=28.0 size=     512KiB time=00:00:53.08 bitrate=  79.0kbits/s speed=0.935x elapsed=0:00:56.79    frame=  510 fps=8.9 q=28.0 size=     512KiB time=00:00:53.68 bitrate=  78.1kbits/s speed=0.937x elapsed=0:00:57.29    frame=  517 fps=8.9 q=26.0 size=     512KiB time=00:00:54.20 bitrate=  77.4kbits/s speed=0.938x elapsed=0:00:57.79    frame=  522 fps=9.0 q=25.0 size=     512KiB time=00:00:54.64 bitrate=  76.8kbits/s speed=0.937x elapsed=0:00:58.29    frame=  526 fps=8.9 q=25.0 size=     512KiB time=00:00:54.96 bitrate=  76.3kbits/s speed=0.935x elapsed=0:00:58.79    frame=  534 fps=9.0 q=26.0 size=     512KiB time=00:00:55.92 bitrate=  75.0kbits/s speed=0.943x elapsed=0:00:59.29    frame=  539 fps=9.0 q=26.0 size=     512KiB time=00:00:56.40 bitrate=  74.4kbits/s speed=0.943x elapsed=0:00:59.79    frame=  546 fps=9.1 q=27.0 size=     512KiB time=00:00:57.04 bitrate=  73.5kbits/s speed=0.946x elapsed=0:01:00.31    frame=  549 fps=9.0 q=26.0 size=     512KiB time=00:00:57.44 bitrate=  73.0kbits/s speed=0.944x elapsed=0:01:00.81    frame=  556 fps=9.1 q=28.0 size=     768KiB time=00:00:57.92 bitrate= 108.6kbits/s speed=0.945x elapsed=0:01:01.32    frame=  560 fps=9.1 q=28.0 size=     768KiB time=00:00:58.36 bitrate= 107.8kbits/s speed=0.944x elapsed=0:01:01.82    frame=  563 fps=9.0 q=28.0 size=     768KiB time=00:00:58.64 bitrate= 107.3kbits/s speed=0.941x elapsed=0:01:02.32    frame=  567 fps=9.0 q=27.0 size=     768KiB time=00:00:59.04 bitrate= 106.6kbits/s speed=0.94x elapsed=0:01:02.82    frame=  573 fps=9.0 q=28.0 size=     768KiB time=00:00:59.56 bitrate= 105.6kbits/s speed=0.941x elapsed=0:01:03.32    frame=  575 fps=9.0 q=28.0 size=     768KiB time=00:00:59.76 bitrate= 105.3kbits/s speed=0.936x elapsed=0:01:03.83    frame=  582 fps=9.0 q=24.0 size=     768KiB time=00:01:00.28 bitrate= 104.4kbits/s speed=0.937x elapsed=0:01:04.34    frame=  588 fps=9.1 q=23.0 size=     768KiB time=00:01:01.04 bitrate= 103.1kbits/s speed=0.941x elapsed=0:01:04.85    frame=  590 fps=9.0 q=23.0 size=     768KiB time=00:01:01.20 bitrate= 102.8kbits/s speed=0.936x elapsed=0:01:05.35    frame=  597 fps=9.1 q=26.0 size=     768KiB time=00:01:01.88 bitrate= 101.7kbits/s speed=0.94x elapsed=0:01:05.86    frame=  602 fps=9.1 q=24.0 size=     768KiB time=00:01:02.48 bitrate= 100.7kbits/s speed=0.941x elapsed=0:01:06.37    frame=  606 fps=9.1 q=25.0 size=     768KiB time=00:01:03.00 bitrate=  99.9kbits/s speed=0.942x elapsed=0:01:06.87    frame=  611 fps=9.1 q=28.0 size=     768KiB time=00:01:03.40 bitrate=  99.2kbits/s speed=0.941x elapsed=0:01:07.37    frame=  617 fps=9.1 q=28.0 size=     768KiB time=00:01:04.16 bitrate=  98.1kbits/s speed=0.945x elapsed=0:01:07.89    frame=  620 fps=9.1 q=28.0 size=     768KiB time=00:01:04.40 bitrate=  97.7kbits/s speed=0.942x elapsed=0:01:08.39    frame=  626 fps=9.1 q=26.0 size=     768KiB time=00:01:04.96 bitrate=  96.9kbits/s speed=0.943x elapsed=0:01:08.89    frame=  631 fps=9.1 q=25.0 size=     768KiB time=00:01:05.60 bitrate=  95.9kbits/s speed=0.945x elapsed=0:01:09.39    frame=  634 fps=9.1 q=26.0 size=     768KiB time=00:01:05.84 bitrate=  95.6kbits/s speed=0.942x elapsed=0:01:09.89    frame=  640 fps=9.1 q=28.0 size=     768KiB time=00:01:06.40 bitrate=  94.8kbits/s speed=0.943x elapsed=0:01:10.40    frame=  645 fps=9.1 q=25.0 size=     768KiB time=00:01:07.08 bitrate=  93.8kbits/s speed=0.946x elapsed=0:01:10.90    frame=  651 fps=9.1 q=26.0 size=     768KiB time=00:01:07.64 bitrate=  93.0kbits/s speed=0.947x elapsed=0:01:11.41    frame=  658 fps=9.1 q=27.0 size=     768KiB time=00:01:08.40 bitrate=  92.0kbits/s speed=0.951x elapsed=0:01:11.91    frame=  662 fps=9.1 q=25.0 size=     768KiB time=00:01:08.72 bitrate=  91.6kbits/s speed=0.949x elapsed=0:01:12.42    frame=  670 fps=9.2 q=27.0 size=     768KiB time=00:01:09.56 bitrate=  90.4kbits/s speed=0.954x elapsed=0:01:12.93    frame=  675 fps=9.2 q=27.0 size=     768KiB time=00:01:10.28 bitrate=  89.5kbits/s speed=0.957x elapsed=0:01:13.43    frame=  682 fps=9.2 q=25.0 size=     768KiB time=00:01:10.76 bitrate=  88.9kbits/s speed=0.957x elapsed=0:01:13.93    frame=  687 fps=9.2 q=26.0 size=     768KiB time=00:01:11.28 bitrate=  88.3kbits/s speed=0.958x elapsed=0:01:14.43    frame=  691 fps=9.2 q=28.0 size=     768KiB time=00:01:11.64 bitrate=  87.8kbits/s speed=0.956x elapsed=0:01:14.93    frame=  694 fps=9.2 q=27.0 size=     768KiB time=00:01:11.92 bitrate=  87.5kbits/s speed=0.953x elapsed=0:01:15.44    frame=  698 fps=9.2 q=28.0 size=     768KiB time=00:01:12.32 bitrate=  87.0kbits/s speed=0.952x elapsed=0:01:15.94    frame=  702 fps=9.2 q=28.0 size=     768KiB time=00:01:12.64 bitrate=  86.6kbits/s speed=0.95x elapsed=0:01:16.44    frame=  707 fps=9.2 q=28.0 size=     768KiB time=00:01:12.96 bitrate=  86.2kbits/s speed=0.948x elapsed=0:01:16.94    frame=  711 fps=9.2 q=26.0 size=    1024KiB time=00:01:13.32 bitrate= 114.4kbits/s speed=0.947x elapsed=0:01:17.44    frame=  716 fps=9.2 q=26.0 size=    1024KiB time=00:01:13.76 bitrate= 113.7kbits/s speed=0.946x elapsed=0:01:17.95    frame=  721 fps=9.2 q=26.0 size=    1024KiB time=00:01:14.36 bitrate= 112.8kbits/s speed=0.948x elapsed=0:01:18.45    frame=  727 fps=9.2 q=26.0 size=    1024KiB time=00:01:14.76 bitrate= 112.2kbits/s speed=0.947x elapsed=0:01:18.95    frame=  730 fps=9.2 q=27.0 size=    1024KiB time=00:01:15.20 bitrate= 111.6kbits/s speed=0.946x elapsed=0:01:19.45    frame=  736 fps=9.2 q=28.0 size=    1024KiB time=00:01:15.84 bitrate= 110.6kbits/s speed=0.948x elapsed=0:01:19.96    frame=  740 fps=9.2 q=27.0 size=    1024KiB time=00:01:16.32 bitrate= 109.9kbits/s speed=0.948x elapsed=0:01:20.46    frame=  746 fps=9.2 q=23.0 size=    1024KiB time=00:01:17.16 bitrate= 108.7kbits/s speed=0.953x elapsed=0:01:20.98    frame=  750 fps=9.2 q=26.0 size=    1024KiB time=00:01:17.60 bitrate= 108.1kbits/s speed=0.952x elapsed=0:01:21.48    frame=  755 fps=9.2 q=23.0 size=    1024KiB time=00:01:18.16 bitrate= 107.3kbits/s speed=0.953x elapsed=0:01:21.99    frame=  759 fps=9.2 q=26.0 size=    1024KiB time=00:01:18.52 bitrate= 106.8kbits/s speed=0.952x elapsed=0:01:22.49    frame=  767 fps=9.2 q=25.0 size=    1024KiB time=00:01:19.44 bitrate= 105.6kbits/s speed=0.957x elapsed=0:01:22.99    frame=  770 fps=9.2 q=26.0 size=    1024KiB time=00:01:19.72 bitrate= 105.2kbits/s speed=0.955x elapsed=0:01:23.50    frame=  775 fps=9.2 q=28.0 size=    1024KiB time=00:01:20.12 bitrate= 104.7kbits/s speed=0.954x elapsed=0:01:24.00    frame=  780 fps=9.2 q=28.0 size=    1024KiB time=00:01:20.64 bitrate= 104.0kbits/s speed=0.954x elapsed=0:01:24.50    frame=  786 fps=9.2 q=27.0 size=    1024KiB time=00:01:21.28 bitrate= 103.2kbits/s speed=0.956x elapsed=0:01:25.00    frame=  791 fps=9.3 q=23.0 size=    1024KiB time=00:01:22.04 bitrate= 102.3kbits/s speed=0.959x elapsed=0:01:25.50    frame=  796 fps=9.3 q=23.0 size=    1024KiB time=00:01:22.40 bitrate= 101.8kbits/s speed=0.958x elapsed=0:01:26.00    frame=  800 fps=9.2 q=25.0 size=    1024KiB time=00:01:22.92 bitrate= 101.2kbits/s speed=0.958x elapsed=0:01:26.51    frame=  806 fps=9.3 q=23.0 size=    1280KiB time=00:01:23.48 bitrate= 125.6kbits/s speed=0.959x elapsed=0:01:27.01    frame=  811 fps=9.3 q=26.0 size=    1280KiB time=00:01:23.84 bitrate= 125.1kbits/s speed=0.958x elapsed=0:01:27.52    frame=  815 fps=9.3 q=28.0 size=    1280KiB time=00:01:24.40 bitrate= 124.2kbits/s speed=0.959x elapsed=0:01:28.02    frame=  822 fps=9.3 q=27.0 size=    1280KiB time=00:01:24.96 bitrate= 123.4kbits/s speed=0.96x elapsed=0:01:28.52    frame=  825 fps=9.3 q=26.0 size=    1280KiB time=00:01:25.48 bitrate= 122.7kbits/s speed=0.96x elapsed=0:01:29.03    frame=  828 fps=9.2 q=26.0 size=    1280KiB time=00:01:25.64 bitrate= 122.4kbits/s speed=0.956x elapsed=0:01:29.53    frame=  834 fps=9.3 q=26.0 size=    1280KiB time=00:01:26.08 bitrate= 121.8kbits/s speed=0.956x elapsed=0:01:30.04    frame=  840 fps=9.3 q=28.0 size=    1280KiB time=00:01:26.72 bitrate= 120.9kbits/s speed=0.958x elapsed=0:01:30.54    frame=  843 fps=9.3 q=27.0 size=    1280KiB time=00:01:26.96 bitrate= 120.6kbits/s speed=0.955x elapsed=0:01:31.04    frame=  851 fps=9.3 q=26.0 size=    1280KiB time=00:01:27.96 bitrate= 119.2kbits/s speed=0.961x elapsed=0:01:31.55    frame=  855 fps=9.3 q=26.0 size=    1280KiB time=00:01:28.44 bitrate= 118.6kbits/s speed=0.961x elapsed=0:01:32.05    frame=  858 fps=9.3 q=28.0 size=    1280KiB time=00:01:28.60 bitrate= 118.3kbits/s speed=0.957x elapsed=0:01:32.56    frame=  863 fps=9.3 q=25.0 size=    1280KiB time=00:01:29.04 bitrate= 117.8kbits/s speed=0.957x elapsed=0:01:33.06    frame=  868 fps=9.3 q=24.0 size=    1280KiB time=00:01:29.72 bitrate= 116.9kbits/s speed=0.959x elapsed=0:01:33.57    frame=  871 fps=9.3 q=27.0 size=    1280KiB time=00:01:29.96 bitrate= 116.6kbits/s speed=0.956x elapsed=0:01:34.07    frame=  879 fps=9.3 q=26.0 size=    1280KiB time=00:01:30.72 bitrate= 115.6kbits/s speed=0.959x elapsed=0:01:34.57    frame=  883 fps=9.3 q=25.0 size=    1280KiB time=00:01:31.36 bitrate= 114.8kbits/s speed=0.961x elapsed=0:01:35.07    frame=  887 fps=9.3 q=26.0 size=    1280KiB time=00:01:31.56 bitrate= 114.5kbits/s speed=0.958x elapsed=0:01:35.57    frame=  893 fps=9.3 q=28.0 size=    1536KiB time=00:01:32.16 bitrate= 136.5kbits/s speed=0.959x elapsed=0:01:36.08    frame=  898 fps=9.3 q=28.0 size=    1536KiB time=00:01:32.92 bitrate= 135.4kbits/s speed=0.962x elapsed=0:01:36.58    frame=  902 fps=9.3 q=26.0 size=    1536KiB time=00:01:33.44 bitrate= 134.7kbits/s speed=0.962x elapsed=0:01:37.08    frame=  906 fps=9.3 q=28.0 size=    1536KiB time=00:01:33.68 bitrate= 134.3kbits/s speed=0.96x elapsed=0:01:37.58    frame=  907 fps=9.2 q=27.0 size=    1536KiB time=00:01:34.12 bitrate= 133.7kbits/s speed=0.96x elapsed=0:01:38.08    frame=  914 fps=9.3 q=28.0 size=    1536KiB time=00:01:34.60 bitrate= 133.0kbits/s speed=0.96x elapsed=0:01:38.59    frame=  919 fps=9.3 q=28.0 size=    1536KiB time=00:01:35.04 bitrate= 132.4kbits/s speed=0.959x elapsed=0:01:39.09    frame=  922 fps=9.3 q=26.0 size=    1536KiB time=00:01:35.24 bitrate= 132.1kbits/s speed=0.956x elapsed=0:01:39.59    frame=  928 fps=9.3 q=26.0 size=    1536KiB time=00:01:36.00 bitrate= 131.1kbits/s speed=0.959x elapsed=0:01:40.09    frame=  934 fps=9.3 q=24.0 size=    1536KiB time=00:01:36.64 bitrate= 130.2kbits/s speed=0.961x elapsed=0:01:40.59    frame=  940 fps=9.3 q=24.0 size=    1536KiB time=00:01:37.24 bitrate= 129.4kbits/s speed=0.962x elapsed=0:01:41.09    frame=  945 fps=9.3 q=24.0 size=    1536KiB time=00:01:37.80 bitrate= 128.7kbits/s speed=0.963x elapsed=0:01:41.59    frame=  950 fps=9.3 q=22.0 size=    1536KiB time=00:01:38.48 bitrate= 127.8kbits/s speed=0.965x elapsed=0:01:42.10    frame=  955 fps=9.3 q=24.0 size=    1536KiB time=00:01:39.00 bitrate= 127.1kbits/s speed=0.965x elapsed=0:01:42.60    frame=  958 fps=9.3 q=26.0 size=    1536KiB time=00:01:39.44 bitrate= 126.5kbits/s speed=0.964x elapsed=0:01:43.10    frame=  966 fps=9.3 q=28.0 size=    1536KiB time=00:01:40.20 bitrate= 125.6kbits/s speed=0.967x elapsed=0:01:43.62    frame=  972 fps=9.3 q=28.0 size=    1536KiB time=00:01:40.80 bitrate= 124.8kbits/s speed=0.968x elapsed=0:01:44.13    frame=  975 fps=9.3 q=26.0 size=    1536KiB time=00:01:41.04 bitrate= 124.5kbits/s speed=0.966x elapsed=0:01:44.63    frame=  981 fps=9.3 q=26.0 size=    1536KiB time=00:01:41.56 bitrate= 123.9kbits/s speed=0.966x elapsed=0:01:45.13    frame=  985 fps=9.3 q=28.0 size=    1536KiB time=00:01:41.92 bitrate= 123.5kbits/s speed=0.965x elapsed=0:01:45.63    frame=  991 fps=9.3 q=24.0 size=    1536KiB time=00:01:42.56 bitrate= 122.7kbits/s speed=0.966x elapsed=0:01:46.13    frame=  996 fps=9.3 q=26.0 size=    1536KiB time=00:01:43.32 bitrate= 121.8kbits/s speed=0.969x elapsed=0:01:46.64    frame=  999 fps=9.3 q=26.0 size=    1536KiB time=00:01:43.44 bitrate= 121.6kbits/s speed=0.965x elapsed=0:01:47.14    frame= 1004 fps=9.3 q=25.0 size=    1536KiB time=00:01:43.76 bitrate= 121.3kbits/s speed=0.964x elapsed=0:01:47.64    frame= 1008 fps=9.3 q=24.0 size=    1536KiB time=00:01:44.20 bitrate= 120.8kbits/s speed=0.964x elapsed=0:01:48.14    frame= 1013 fps=9.3 q=25.0 size=    1536KiB time=00:01:44.68 bitrate= 120.2kbits/s speed=0.963x elapsed=0:01:48.64    frame= 1017 fps=9.3 q=26.0 size=    1536KiB time=00:01:45.20 bitrate= 119.6kbits/s speed=0.964x elapsed=0:01:49.16    frame= 1022 fps=9.3 q=28.0 size=    1536KiB time=00:01:45.48 bitrate= 119.3kbits/s speed=0.962x elapsed=0:01:49.66    frame= 1027 fps=9.3 q=26.0 size=    1536KiB time=00:01:46.00 bitrate= 118.7kbits/s speed=0.962x elapsed=0:01:50.19    frame= 1031 fps=9.3 q=24.0 size=    1536KiB time=00:01:46.56 bitrate= 118.1kbits/s speed=0.963x elapsed=0:01:50.69    frame= 1035 fps=9.3 q=26.0 size=    1536KiB time=00:01:46.88 bitrate= 117.7kbits/s speed=0.961x elapsed=0:01:51.20    frame= 1041 fps=9.3 q=24.0 size=    1536KiB time=00:01:47.64 bitrate= 116.9kbits/s speed=0.964x elapsed=0:01:51.70    frame= 1047 fps=9.3 q=26.0 size=    1536KiB time=00:01:48.36 bitrate= 116.1kbits/s speed=0.966x elapsed=0:01:52.20    frame= 1050 fps=9.3 q=21.0 size=    1536KiB time=00:01:48.68 bitrate= 115.8kbits/s speed=0.964x elapsed=0:01:52.70    frame= 1052 fps=9.3 q=27.0 size=    1536KiB time=00:01:48.88 bitrate= 115.6kbits/s speed=0.962x elapsed=0:01:53.20    frame= 1059 fps=9.3 q=25.0 size=    1536KiB time=00:01:49.52 bitrate= 114.9kbits/s speed=0.963x elapsed=0:01:53.70    frame= 1064 fps=9.3 q=25.0 size=    1536KiB time=00:01:50.16 bitrate= 114.2kbits/s speed=0.965x elapsed=0:01:54.21    frame= 1069 fps=9.3 q=25.0 size=    1536KiB time=00:01:50.72 bitrate= 113.6kbits/s speed=0.965x elapsed=0:01:54.71    frame= 1072 fps=9.3 q=26.0 size=    1536KiB time=00:01:51.04 bitrate= 113.3kbits/s speed=0.964x elapsed=0:01:55.21    frame= 1077 fps=9.3 q=20.0 size=    1536KiB time=00:01:51.68 bitrate= 112.7kbits/s speed=0.965x elapsed=0:01:55.72    frame= 1084 fps=9.3 q=22.0 size=    1536KiB time=00:01:52.32 bitrate= 112.0kbits/s speed=0.966x elapsed=0:01:56.23    frame= 1088 fps=9.3 q=28.0 size=    1792KiB time=00:01:52.80 bitrate= 130.1kbits/s speed=0.966x elapsed=0:01:56.73    frame= 1091 fps=9.3 q=28.0 size=    1792KiB time=00:01:53.36 bitrate= 129.5kbits/s speed=0.967x elapsed=0:01:57.23    frame= 1096 fps=9.3 q=28.0 size=    1792KiB time=00:01:53.76 bitrate= 129.0kbits/s speed=0.966x elapsed=0:01:57.74    frame= 1101 fps=9.3 q=27.0 size=    1792KiB time=00:01:54.24 bitrate= 128.5kbits/s speed=0.966x elapsed=0:01:58.24    frame= 1103 fps=9.3 q=28.0 size=    1792KiB time=00:01:54.56 bitrate= 128.1kbits/s speed=0.965x elapsed=0:01:58.74    frame= 1107 fps=9.3 q=26.0 size=    1792KiB time=00:01:54.76 bitrate= 127.9kbits/s speed=0.962x elapsed=0:01:59.24    frame= 1111 fps=9.3 q=26.0 size=    1792KiB time=00:01:55.36 bitrate= 127.3kbits/s speed=0.963x elapsed=0:01:59.76    frame= 1116 fps=9.3 q=26.0 size=    1792KiB time=00:01:55.84 bitrate= 126.7kbits/s speed=0.963x elapsed=0:02:00.26    frame= 1120 fps=9.3 q=23.0 size=    1792KiB time=00:01:56.20 bitrate= 126.3kbits/s speed=0.962x elapsed=0:02:00.77    frame= 1123 fps=9.3 q=26.0 size=    1792KiB time=00:01:56.44 bitrate= 126.1kbits/s speed=0.96x elapsed=0:02:01.28    frame= 1129 fps=9.3 q=26.0 size=    1792KiB time=00:01:57.04 bitrate= 125.4kbits/s speed=0.961x elapsed=0:02:01.78    frame= 1132 fps=9.3 q=24.0 size=    1792KiB time=00:01:57.72 bitrate= 124.7kbits/s speed=0.963x elapsed=0:02:02.28    frame= 1136 fps=9.3 q=24.0 size=    1792KiB time=00:01:58.12 bitrate= 124.3kbits/s speed=0.962x elapsed=0:02:02.79    [out#0/matroska @ 0x5623b7959500] video:2784KiB audio:0KiB subtitle:0KiB other streams:0KiB global headers:0KiB muxing overhead: 0.329894%
frame= 1176 fps=9.4 q=-1.0 Lsize=    2794KiB time=00:02:03.20 bitrate= 185.8kbits/s speed=0.99x elapsed=0:02:04.47    
[libx264 @ 0x5623b795af00] frame I:6     Avg QP: 7.67  size:136894
[libx264 @ 0x5623b795af00] frame P:297   Avg QP:16.42  size:  4996
[libx264 @ 0x5623b795af00] frame B:873   Avg QP:21.63  size:   625
[libx264 @ 0x5623b795af00] consecutive B-frames:  0.9%  0.2%  0.3% 98.6%
[libx264 @ 0x5623b795af00] mb I  I16..4: 87.8%  1.0% 11.2%
[libx264 @ 0x5623b795af00] mb P  I16..4:  0.6%  0.1%  0.1%  P16..4:  0.4%  0.2%  0.2%  0.0%  0.0%    skip:98.4%
[libx264 @ 0x5623b795af00] mb B  I16..4:  0.1%  0.0%  0.0%  B16..8:  0.3%  0.1%  0.0%  direct: 0.0%  skip:99.4%  L0:49.9% L1:45.3% BI: 4.8%
[libx264 @ 0x5623b795af00] 8x8 transform intra:2.3% inter:5.1%
[libx264 @ 0x5623b795af00] coded y,uvDC,uvAC intra: 13.0% 17.1% 14.6% inter: 0.1% 0.1% 0.1%
[libx264 @ 0x5623b795af00] i16 v,h,dc,p: 69% 30%  1%  0%
[libx264 @ 0x5623b795af00] i8 v,h,dc,ddl,ddr,vr,hd,vl,hu: 17% 16% 64%  1%  0%  1%  1%  0%  1%
[libx264 @ 0x5623b795af00] i4 v,h,dc,ddl,ddr,vr,hd,vl,hu: 33% 28% 18%  3%  3%  4%  3%  4%  3%
[libx264 @ 0x5623b795af00] i8c dc,h,v,p: 65% 28%  7%  0%
[libx264 @ 0x5623b795af00] Weighted P-Frames: Y:0.0% UV:0.0%
[libx264 @ 0x5623b795af00] kb/s:184.74
Exiting normally, received signal 2.
